<svg id="Laag_1" data-name="Laag 1" xmlns="http://www.w3.org/2000/svg" viewBox="0 0 338 330.05"><defs><style>.cls-1{opacity:0.38;}.cls-2{fill:#2f5d68;}.cls-3{fill:#06301a;}.cls-4{opacity:0.39;}.cls-5{fill:#635224;}.cls-6{font-size:27.13px;fill:#9f5e7f;font-family:Lora-Regular, Lora;}.cls-7{letter-spacing:0em;}.cls-8{letter-spacing:0em;}.cls-9{letter-spacing:-0.01em;}.cls-10{letter-spacing:-0.01em;}.cls-11{font-size:14px;font-family:MyriadPro-Regular, Myriad Pro;}.cls-12{letter-spacing:-0.04em;}.cls-13{letter-spacing:0em;}.cls-14{letter-spacing:0.01em;}.cls-15{letter-spacing:0.02em;}.cls-16{letter-spacing:0.02em;}.cls-17{letter-spacing:-0.01em;}.cls-18{letter-spacing:0em;}.cls-19{letter-spacing:0em;}.cls-20{letter-spacing:-0.01em;}.cls-21{letter-spacing:-0.01em;}.cls-22{letter-spacing:-0.01em;}.cls-23{letter-spacing:-0.01em;}.cls-24{letter-spacing:0em;}.cls-25{letter-spacing:-0.01em;}.cls-26{letter-spacing:-0.01em;}.cls-27{letter-spacing:0em;}.cls-28{opacity:0.31;}</style></defs><title>galbay4</title><g class="cls-1"><path class="cls-2" d="M109.47,146.12C115.75,145,12.1,151.68,21.94,168c7.29,12.08,143.32,30.32,94.45,53s-63.87,43.22.13,57.75c96.8,22,45.17,33.17,85.42,50.82,45.27,19.86,105.27-3.69,103.51-25.13-5.34-64.61-207.2-47.83-170.54-69.89,124.52-74.93-219.23-53.64-25.44-88.37Z" transform="translate(0 -6.95)"/></g><rect class="cls-2" x="120.19" y="256.17" width="129.08" height="73.89"/><path class="cls-3" d="M134.9,309.17c21.89-14.57,39.1-7.45,42.56-20.07,3.2-11.65-8.46-24.9-8.46-24.9l-45.58-47.94a5.89,5.89,0,0,0-8.62,0L0,337H135.15S113,323.75,134.9,309.17Z" transform="translate(0 -6.95)"/><path class="cls-3" d="M218.89,306.4c0,11.47-15.17,25.56,32.25,30.6H338L223.2,216.26a5.89,5.89,0,0,0-8.62,0L169,264.2S218.89,282.31,218.89,306.4Z" transform="translate(0 -6.95)"/><path d="M181.41,297.31l-.37-.7c3-1.72,1.47-9.07,1.46-9.14l.74-.18C183.32,287.61,184.9,295.3,181.41,297.31Z" transform="translate(0 -6.95)"/><g class="cls-4"><path d="M137,214.89l-.73-.23c1-3.44-5.07-7.51-5.13-7.54l.41-.68C131.77,206.62,138.07,210.87,137,214.89Z" transform="translate(0 -6.95)"/></g><g class="cls-4"><path d="M145.53,211.72l-.73-.23c1-3.44-5.08-7.5-5.13-7.54l.4-.68C140.34,203.45,146.65,207.7,145.53,211.72Z" transform="translate(0 -6.95)"/></g><g class="cls-4"><path d="M152.73,211l-.73-.22c1-3.44-5.07-7.51-5.13-7.55l.41-.67C147.55,202.75,153.85,207,152.73,211Z" transform="translate(0 -6.95)"/></g><path d="M207.84,297l-.75-.15c.66-3.58-5.57-9.14-5.63-9.19l.49-.62C202.22,287.31,208.58,293,207.84,297Z" transform="translate(0 -6.95)"/><path d="M150.69,324.19c-3.07-1.91-4.53-4-4.33-6.29.55-6.06,12.95-10.84,13.48-11l.26.75c-.12.05-12.48,4.8-13,10.36-.17,1.93,1.16,3.79,4,5.53Z" transform="translate(0 -6.95)"/><path d="M179.83,324.12c-2.56-2.91-3.67-5.88-3.3-8.85.63-5.07,5.32-8.25,5.52-8.38l.41.68c-.05,0-4.6,3.11-5.18,7.81-.33,2.71.71,5.47,3.1,8.19Z" transform="translate(0 -6.95)"/><path d="M204.5,324.21c-3-1.5-4.17-5-3.43-10a31.84,31.84,0,0,1,2-7.11l.69.33c0,.13-5.36,12.84,1.1,16.09Z" transform="translate(0 -6.95)"/><path d="M193.67,295.92l-.67-.38c1.72-3.32,0-8,0-8l.71-.3C193.77,287.43,195.56,292.26,193.67,295.92Z" transform="translate(0 -6.95)"/><ellipse cx="182.77" cy="279.07" rx="0.52" ry="0.46"/><ellipse cx="192.81" cy="279.07" rx="0.52" ry="0.46"/><ellipse cx="200.92" cy="279.07" rx="0.52" ry="0.46"/><path class="cls-5" d="M21.08,181a2,2,0,0,1,.12,4.05v1.07h.38a.13.13,0,0,1,0,.26h-1a.13.13,0,0,1,0-.26H21v-1.07a2,2,0,0,1,.12-4.05Zm.12,1.56v2.25a1.78,1.78,0,1,0-.24,0v-1l-.61-.74c-.1-.12.09-.28.19-.16l.42.52v-.91A.12.12,0,1,1,21.2,182.56Z" transform="translate(0 -6.95)"/><path class="cls-5" d="M26.47,179.44a2,2,0,0,1,.12,4.05v1.08H27a.12.12,0,0,1,0,.24H26a.12.12,0,1,1,0-.24h.37v-1.08a2,2,0,0,1,.12-4.05Zm.12,1.56v2.25a1.79,1.79,0,1,0-1.91-1.79,1.82,1.82,0,0,0,1.67,1.79v-1l-.61-.73c-.1-.12.09-.29.19-.16l.42.51V181A.12.12,0,1,1,26.59,181Z" transform="translate(0 -6.95)"/><path class="cls-5" d="M23.14,174.91a2,2,0,0,1,.12,4.06v1.09h.37a.12.12,0,1,1,0,.24h-1a.12.12,0,1,1,0-.24H23V179a2,2,0,0,1-1.91-2A2,2,0,0,1,23.14,174.91Zm.12,1.56v2.26a1.78,1.78,0,1,0-.24,0v-1l-.61-.72a.13.13,0,1,1,.19-.18l.42.52v-.92A.12.12,0,0,1,23.26,176.47Z" transform="translate(0 -6.95)"/><path class="cls-5" d="M30.19,175.12a2,2,0,0,1,.13,4.06v1.07h.38c.15,0,.15.24,0,.24h-1a.12.12,0,1,1,0-.24h.36v-1.07a2,2,0,0,1,.12-4.06Zm.13,1.56v2.25a1.79,1.79,0,1,0-.25,0v-1l-.6-.72a.12.12,0,1,1,.19-.16l.41.5v-.9A.13.13,0,1,1,30.32,176.68Z" transform="translate(0 -6.95)"/><path class="cls-5" d="M31.29,182.47a2,2,0,0,1,.12,4.05v1.08h.36c.17,0,.16.26,0,.24h-1c-.17,0-.17-.24,0-.24h.37v-1.08a2,2,0,0,1,.14-4.05Zm.12,1.56v2.25a1.8,1.8,0,1,0-.26,0v-.95l-.61-.75c-.1-.12.09-.27.19-.15l.42.52V184A.13.13,0,1,1,31.41,184Z" transform="translate(0 -6.95)"/><path class="cls-5" d="M10.75,154.49a2,2,0,0,1,.12,4.06v1.07h.38c.15,0,.15.26,0,.26h-1a.13.13,0,0,1,0-.26h.37v-1.07a2,2,0,0,1,.12-4.06Zm.12,1.56v2.25a1.79,1.79,0,1,0-.24,0v-1l-.61-.74c-.11-.13.09-.28.19-.16l.42.52v-.92A.12.12,0,1,1,10.87,156.05Z" transform="translate(0 -6.95)"/><path class="cls-5" d="M16.13,152.93a2,2,0,0,1,.13,4.06v1.07h.38a.12.12,0,0,1,0,.24h-1a.12.12,0,1,1,0-.24H16V157a2,2,0,0,1,.12-4.06Zm.13,1.56v2.25a1.79,1.79,0,1,0-.25,0v-1l-.6-.72c-.11-.12.08-.3.19-.16l.41.5v-.9A.13.13,0,1,1,16.26,154.49Z" transform="translate(0 -6.95)"/><path class="cls-5" d="M9.2,147.74a2,2,0,0,1,.13,4.06v1.09h.36a.12.12,0,1,1,0,.24h-1a.12.12,0,0,1,0-.24h.38V151.8a2,2,0,0,1-1.9-2A2,2,0,0,1,9.2,147.74Zm.13,1.56v2.26a1.79,1.79,0,1,0-.25,0v-1l-.6-.73c-.12-.13.07-.29.19-.17l.41.52v-.92A.13.13,0,0,1,9.33,149.3Z" transform="translate(0 -6.95)"/><path class="cls-5" d="M19.86,148.62a2,2,0,0,1,.12,4v1.08h.38a.12.12,0,1,1,0,.24h-1a.12.12,0,1,1,0-.24h.36v-1.08a2,2,0,0,1,.12-4Zm.12,1.56v2.25a1.78,1.78,0,1,0-.24,0v-1l-.61-.73c-.1-.12.09-.29.19-.15l.42.5v-.9A.12.12,0,1,1,20,150.18Z" transform="translate(0 -6.95)"/><path class="cls-5" d="M21,156a2,2,0,0,1,.12,4.05v1.07h.37a.13.13,0,0,1,0,.25h-1a.13.13,0,1,1,0-.25h.36V160A2,2,0,0,1,21,156Zm.12,1.55v2.26a1.79,1.79,0,1,0-.26,0v-1l-.6-.74c-.11-.12.08-.28.19-.16l.41.52v-.92A.13.13,0,0,1,21.07,157.52Z" transform="translate(0 -6.95)"/><path class="cls-5" d="M26.19,148.52a2,2,0,0,1,.12,4.06v1.07h.38a.13.13,0,0,1,0,.26h-1a.13.13,0,1,1,0-.26h.36v-1.07a2,2,0,0,1,.12-4.06Zm.12,1.56v2.25a1.78,1.78,0,1,0-.24,0v-1l-.61-.74c-.1-.12.09-.28.19-.16l.42.52v-.92A.12.12,0,1,1,26.31,150.08Z" transform="translate(0 -6.95)"/><path class="cls-5" d="M31.58,147A2,2,0,0,1,31.7,151v1.07h.38a.12.12,0,1,1,0,.24h-1a.12.12,0,1,1,0-.24h.37V151a2,2,0,0,1,.12-4.06Zm.12,1.56v2.25a1.78,1.78,0,1,0-.24,0v-1l-.61-.72c-.1-.12.09-.3.19-.16l.42.5v-.9A.12.12,0,1,1,31.7,148.52Z" transform="translate(0 -6.95)"/><path class="cls-5" d="M24.65,141.77a2,2,0,0,1,.12,4.06v1.09h.36a.12.12,0,1,1,0,.24h-1a.12.12,0,0,1,0-.24h.38v-1.09a2,2,0,0,1-1.91-2A2,2,0,0,1,24.65,141.77Zm.12,1.56v2.26a1.79,1.79,0,1,0-.24,0v-1l-.61-.73c-.12-.13.07-.29.19-.17l.42.52v-.92A.12.12,0,0,1,24.77,143.33Z" transform="translate(0 -6.95)"/><path class="cls-5" d="M35.31,142.65a2,2,0,0,1,.12,4v1.08h.38c.15,0,.15.24,0,.24h-1a.12.12,0,1,1,0-.24h.36V146.7a2,2,0,0,1,.13-4Zm.12,1.56v2.25a1.79,1.79,0,1,0-.25,0v-1l-.6-.73a.12.12,0,1,1,.19-.15l.41.5v-.9A.13.13,0,1,1,35.43,144.21Z" transform="translate(0 -6.95)"/><path class="cls-5" d="M36.4,150a2,2,0,0,1,.12,4.05v1.07h.36a.13.13,0,1,1,0,.25h-1a.13.13,0,1,1,0-.25h.37v-1.07A2,2,0,0,1,36.4,150Zm.12,1.55v2.26a1.8,1.8,0,1,0-.26,0v-1l-.61-.74c-.1-.12.09-.28.19-.16l.42.52v-.92A.13.13,0,0,1,36.52,151.55Z" transform="translate(0 -6.95)"/><path class="cls-5" d="M8.41,166.72a2,2,0,0,1,2,2,2,2,0,0,1-1.9,2v1.07h.38c.16,0,.16.26,0,.26h-1a.13.13,0,0,1,0-.26h.37v-1.07a2,2,0,0,1,.12-4.06Zm.12,1.56v2.26a1.79,1.79,0,1,0-.24,0v-1l-.61-.74c-.1-.12.09-.28.19-.16l.42.52v-.92A.12.12,0,1,1,8.53,168.28Z" transform="translate(0 -6.95)"/><path class="cls-5" d="M13.8,165.84a2,2,0,0,1,.12,4V171h.38a.12.12,0,0,1,0,.24h-1a.12.12,0,1,1,0-.24h.36v-1.08a2,2,0,0,1,.13-4Zm.12,1.56v2.25a1.79,1.79,0,1,0-.25,0v-1l-.6-.73a.12.12,0,1,1,.19-.15l.41.5v-.9A.13.13,0,1,1,13.92,167.4Z" transform="translate(0 -6.95)"/><path class="cls-5" d="M17.52,163.28a2,2,0,0,1,.12,4.05v1.07H18a.13.13,0,0,1,0,.25H17a.13.13,0,1,1,0-.25h.36v-1.07a2,2,0,0,1,.12-4.05Zm.12,1.55v2.26a1.79,1.79,0,0,0-.12-3.57,1.78,1.78,0,0,0-1.78,1.78,1.81,1.81,0,0,0,1.66,1.79v-1l-.61-.73c-.1-.12.09-.3.19-.16l.42.51v-.91A.12.12,0,1,1,17.64,164.83Z" transform="translate(0 -6.95)"/><path class="cls-5" d="M18.61,170.62a2,2,0,0,1,.12,4.06v1.07h.37c.17,0,.15.26,0,.24h-1c-.17,0-.17-.24,0-.24h.36v-1.07a2,2,0,0,1,.14-4.06Zm.12,1.56v2.25a1.79,1.79,0,1,0-.26,0v-1l-.6-.74a.12.12,0,1,1,.19-.16l.41.52v-.92A.13.13,0,0,1,18.73,172.18Z" transform="translate(0 -6.95)"/><text class="cls-6" transform="translate(24.89 23.06)">Ga<tspan class="cls-7" x="34.66" y="0">l</tspan><tspan class="cls-8" x="41.93" y="0">v</tspan><tspan x="55.49" y="0">eston B</tspan><tspan class="cls-9" x="149.62" y="0">a</tspan><tspan x="163.36" y="0">y Rivie</tspan><tspan class="cls-10" x="245.49" y="0">r</tspan><tspan x="257.04" y="0">en</tspan></text><text class="cls-11" transform="translate(49.33 47.05)"><tspan class="cls-12">T</tspan><tspan class="cls-13" x="6.33" y="0">r</tspan><tspan x="10.96" y="0">ini</tspan><tspan class="cls-14" x="25.28" y="0">t</tspan><tspan class="cls-15" x="30.04" y="0">y</tspan><tspan x="36.97" y="0">: 960</tspan><tspan class="cls-16" x="64.38" y="0">k</tspan><tspan x="71.19" y="0">m (leng</tspan><tspan class="cls-17" x="115.72" y="0">t</tspan><tspan x="120.27" y="0">e), 1.3 (sedime</tspan><tspan class="cls-18" x="203.75" y="0">n</tspan><tspan x="211.46" y="0">t </tspan><tspan x="0" y="16.8">load qs (</tspan><tspan class="cls-19" x="48.97" y="16.8">m</tspan><tspan x="60.59" y="16.8">t/yr), 222 </tspan><tspan class="cls-20" x="115.55" y="16.8">a</tspan><tspan class="cls-21" x="122.19" y="16.8">v</tspan><tspan x="128.78" y="16.8">e</tspan><tspan class="cls-22" x="135.8" y="16.8">r</tspan><tspan x="140.3" y="16.8">age discha</tspan><tspan class="cls-23" x="202.36" y="16.8">r</tspan><tspan x="206.83" y="16.8">ge q </tspan><tspan x="0" y="33.6">(m3s)</tspan><tspan x="0" y="50.4">B</tspan><tspan class="cls-24" x="7.59" y="50.4">r</tspan><tspan x="12.1" y="50.4">a</tspan><tspan class="cls-25" x="18.84" y="50.4">z</tspan><tspan x="24.74" y="50.4">os: 2000</tspan><tspan class="cls-16" x="72.56" y="50.4">k</tspan><tspan x="79.36" y="50.4">m (leng</tspan><tspan class="cls-26" x="123.9" y="50.4">t</tspan><tspan x="128.45" y="50.4">e), 9.2 (sedime</tspan><tspan class="cls-27" x="211.92" y="50.4">n</tspan><tspan x="219.64" y="50.4">t </tspan><tspan x="0" y="67.2">load qs (</tspan><tspan class="cls-19" x="48.97" y="67.2">m</tspan><tspan x="60.59" y="67.2">t/yr), 191 </tspan><tspan class="cls-20" x="115.55" y="67.2">a</tspan><tspan class="cls-21" x="122.19" y="67.2">v</tspan><tspan x="128.78" y="67.2">e</tspan><tspan class="cls-22" x="135.8" y="67.2">r</tspan><tspan x="140.3" y="67.2">age discha</tspan><tspan class="cls-23" x="202.36" y="67.2">r</tspan><tspan x="206.83" y="67.2">ge q </tspan><tspan x="0" y="84">(m3s)</tspan></text><g class="cls-28"><path d="M38,162.51c-1.2-1.35-1.58-2.55-1.15-3.55,1.15-2.69,7.81-3,8.09-3v.39c-.06,0-6.69.26-7.75,2.72-.36.86,0,1.91,1.08,3.14Z" transform="translate(0 -6.95)"/></g><g class="cls-28"><path d="M44,164.75c-1.19-1.35-1.58-2.55-1.15-3.55,1.16-2.69,7.81-2.95,8.09-3v.38c-.06,0-6.69.27-7.75,2.73-.36.86,0,1.91,1.08,3.14Z" transform="translate(0 -6.95)"/></g></svg>