<svg id="Laag_1" data-name="Laag 1" xmlns="http://www.w3.org/2000/svg" xmlns:xlink="http://www.w3.org/1999/xlink" viewBox="0 0 841.89 548.28"><defs><style>.cls-1{fill:#b4c171;}.cls-2{fill:#e41c19;}.cls-3{fill:url(#Naamloos_verloop_74);}.cls-4{fill:url(#Naamloos_verloop_74-2);}.cls-5{fill:url(#Naamloos_verloop_62);}.cls-6{fill:#244226;}.cls-7{fill:url(#Naamloos_verloop_74-3);}.cls-8{fill:url(#Naamloos_verloop_74-4);}.cls-9{fill:url(#Naamloos_verloop_62-2);}.cls-10{fill:#a15e7f;}.cls-11{fill:#a05e7f;}</style><linearGradient id="Naamloos_verloop_74" x1="303.87" y1="119.61" x2="568.65" y2="119.61" gradientUnits="userSpaceOnUse"><stop offset="0" stop-color="#244226"/><stop offset="1" stop-color="#5d9f7e"/></linearGradient><linearGradient id="Naamloos_verloop_74-2" x1="551.96" y1="225.5" x2="575.17" y2="225.5" xlink:href="#Naamloos_verloop_74"/><linearGradient id="Naamloos_verloop_62" x1="248.97" y1="229.16" x2="277.21" y2="229.16" gradientUnits="userSpaceOnUse"><stop offset="0.25" stop-color="#b4c171"/><stop offset="1" stop-color="#244226"/></linearGradient><linearGradient id="Naamloos_verloop_74-3" x1="303.87" y1="382.52" x2="569.47" y2="382.52" xlink:href="#Naamloos_verloop_74"/><linearGradient id="Naamloos_verloop_74-4" x1="556.42" y1="279.99" x2="585.03" y2="279.99" xlink:href="#Naamloos_verloop_74"/><linearGradient id="Naamloos_verloop_62-2" x1="248.97" y1="276.99" x2="277.21" y2="276.99" xlink:href="#Naamloos_verloop_62"/></defs><title>logotest</title><rect class="cls-1" width="841.89" height="548.28"/><polygon class="cls-2" points="331.76 225.91 312.44 245.22 287.71 213.66 322.36 213.66 331.76 225.91"/><polygon class="cls-2" points="439.55 213.66 413.16 246.63 394.68 228.14 406.26 213.66 439.55 213.66"/><path class="cls-3" d="M568.65,166.23H536.06A154.27,154.27,0,0,0,527.38,152a152.5,152.5,0,0,0-223.51-31.12,165,165,0,0,1,264.78,45.4Z"/><path class="cls-4" d="M575.17,238H554a153.85,153.85,0,0,0-2-24.82,22,22,0,0,1,2.87-.18c7.09,0,13.37,3.62,15.82,11.09Z"/><path class="cls-5" d="M277.21,214.33V244H249a152.7,152.7,0,0,1,2.89-29.67Z"/><path class="cls-6" d="M527.38,158a139.73,139.73,0,0,0-226.13,8.28h-31a153.45,153.45,0,0,1,33.6-39.4A152.5,152.5,0,0,1,527.38,158Z"/><path class="cls-7" d="M537,335.05h32.52a165,165,0,0,1-265.6,47.12,152.5,152.5,0,0,0,223.51-31.12A150,150,0,0,0,537,335.05Z"/><path class="cls-8" d="M585,265c0,1.07,0,2.14,0,3.2A165.11,165.11,0,0,1,582.31,295H565.6L557,266.89c-.2-.64-.4-1.27-.59-1.89Z"/><path class="cls-9" d="M277.21,259v36h-24A153,153,0,0,1,249,259Z"/><path class="cls-6" d="M527.38,345.05a152.55,152.55,0,0,1-258.11-10h30.85a139.72,139.72,0,0,0,227.26,10Z"/><path class="cls-10" d="M249,214.33V295h28.24V214.33Z"/><path class="cls-10" d="M585,268.2l-1-3.2-8.79-27-4.52-13.91c-2.45-7.47-8.73-11.09-15.82-11.09a22,22,0,0,0-2.87.18,17.17,17.17,0,0,0-12.69,8.38l-14.59,22.9c-8,12.42-11.6,18.33-14.6,24-3.14-5.66-6.69-11.69-14.73-24.11l-14.6-22.78A17,17,0,0,0,465.33,213c-7.09,0-13.51,3.62-16,11.09L425.77,295h27.69l8.6-28.09c2.73-9,4.77-15.8,6.14-22.18,2.86,5.42,6.14,11.09,12.82,22.18l12.28,20.37c4.77,8,9.41,9,16.23,9s11.46-1.08,16.24-9L538.05,267c6.27-10.49,9.68-16.64,12.68-22.3,1.4,6,3.15,12.11,5.69,20.29.19.62.39,1.25.59,1.89L565.6,295h28.11Z"/><polygon class="cls-11" points="439.55 213.66 413.16 246.63 394.68 228.14 406.26 213.66 439.55 213.66"/><path class="cls-10" d="M408.59,252.34,381.16,286.6c-4,4.7-9.55,9-18.28,9-8.46,0-14.05-4-18-9L317,251l19.26-19.26,27.21,35.46,26.68-33.34Z"/><polygon class="cls-11" points="331.76 225.91 312.44 245.22 287.71 213.66 322.36 213.66 331.76 225.91"/></svg>