<svg id="Laag_1" data-name="Laag 1" xmlns="http://www.w3.org/2000/svg" viewBox="0 0 324.59 197.8"><defs><style>.cls-1{fill:#a05e7f;}.cls-2{fill:#396cb4;}.cls-3{fill:#040404;}.cls-4{fill:#363636;}.cls-5{fill:#b4c171;}.cls-6{fill:#bcbcbc;}.cls-17,.cls-7{font-size:9.8px;}.cls-17,.cls-20,.cls-21,.cls-7{fill:#1d1d1b;font-family:MyriadPro-Regular, Myriad Pro;}.cls-8{letter-spacing:0em;}.cls-9{letter-spacing:0em;}.cls-10{letter-spacing:-0.01em;}.cls-11{letter-spacing:-0.01em;}.cls-12{letter-spacing:-0.01em;}.cls-13{letter-spacing:-0.01em;}.cls-14,.cls-17{letter-spacing:-0.03em;}.cls-15{letter-spacing:0em;}.cls-16{letter-spacing:0em;}.cls-18{letter-spacing:-0.03em;}.cls-19{letter-spacing:0em;}.cls-20{font-size:16.08px;}.cls-21{font-size:14.61px;}.cls-22{fill:none;stroke:#1d1d1b;stroke-miterlimit:10;stroke-width:0.5px;}</style></defs><title>pie11</title><rect class="cls-1" x="217.59" y="158.59" width="26.14" height="20.91"/><path class="cls-1" d="M105.13,156V64.48c21.12,0,38.19,5.71,55.05,18.42Z" transform="translate(-13.65 -49.63)"/><rect class="cls-2" x="217.59" y="127.23" width="26.14" height="20.91"/><path class="cls-2" d="M105.13,156l55.05-73,1.27,1Z" transform="translate(-13.65 -49.63)"/><rect class="cls-3" x="217.59" y="95.87" width="26.14" height="20.91"/><path class="cls-3" d="M105.13,156l56.32-72.08c1.23,1,1.28,1,2.48,2Z" transform="translate(-13.65 -49.63)"/><rect class="cls-4" x="217.59" y="64.5" width="26.14" height="20.91"/><path class="cls-4" d="M105.13,156l58.8-70.07a91.88,91.88,0,0,1,15.21,16.31Z" transform="translate(-13.65 -49.63)"/><rect class="cls-5" x="217.59" y="33.14" width="26.14" height="20.91"/><path class="cls-5" d="M105.13,156l74-53.76A91.47,91.47,0,1,1,51.36,82a82.86,82.86,0,0,1,9.42-6Z" transform="translate(-13.65 -49.63)"/><rect class="cls-6" x="217.59" y="1.78" width="26.14" height="20.91"/><path class="cls-6" d="M105.13,156,60.78,76a89.23,89.23,0,0,1,44.35-11.47Z" transform="translate(-13.65 -49.63)"/><text class="cls-7" transform="translate(246.99 15.91)">U<tspan class="cls-8" x="6.34" y="0">r</tspan><tspan class="cls-9" x="9.58" y="0">ban a</tspan><tspan class="cls-10" x="32.13" y="0">r</tspan><tspan x="35.23" y="0">ea</tspan></text><text class="cls-7" transform="translate(246.99 47.27)"><tspan class="cls-11">A</tspan><tspan class="cls-12" x="5.88" y="0">g</tspan><tspan class="cls-8" x="11.3" y="0">r</tspan><tspan x="14.54" y="0">icultu</tspan><tspan class="cls-13" x="37.59" y="0">r</tspan><tspan x="40.69" y="0">e</tspan></text><text class="cls-7" transform="translate(246.99 78.63)"><tspan class="cls-14">W</tspan><tspan class="cls-15" x="7.97" y="0">a</tspan><tspan class="cls-12" x="12.65" y="0">t</tspan><tspan x="15.84" y="0">er body</tspan></text><text class="cls-7" transform="translate(246.99 110)">Sparsely <tspan class="cls-10" x="36.14" y="0">v</tspan><tspan x="40.75" y="0">eget</tspan><tspan class="cls-16" x="59.29" y="0">a</tspan><tspan class="cls-12" x="63.98" y="0">t</tspan><tspan x="67.17" y="0">ed</tspan></text><text class="cls-17" transform="translate(246.99 141.36)">W<tspan class="cls-9" x="7.97" y="0">etland</tspan></text><text class="cls-7" transform="translate(246.99 172.72)"><tspan class="cls-18">F</tspan><tspan class="cls-19" x="4.47" y="0">o</tspan><tspan class="cls-10" x="9.85" y="0">r</tspan><tspan x="12.96" y="0">est</tspan></text><text class="cls-20" transform="translate(66.85 163.73)">77.3%</text><text class="cls-20" transform="translate(94.98 47.27)">10.3%</text><text class="cls-21" transform="translate(57.38 36.61)">7.9%</text><text class="cls-21" transform="translate(128.49 12.23)">0.1%</text><text class="cls-21" transform="translate(173.71 14.85)">0.8%</text><text class="cls-21" transform="translate(174.73 37.5)">3.7%</text><line class="cls-22" x1="147.21" y1="33.79" x2="151.37" y2="28.22"/><line class="cls-22" x1="169.77" y1="34.32" x2="173.69" y2="33.35"/><line class="cls-22" x1="166.66" y1="13.93" x2="172.67" y2="10.46"/><line class="cls-22" x1="149.26" y1="35.83" x2="166.73" y2="13.87"/><line class="cls-22" x1="159.98" y1="45.73" x2="169.9" y2="34.24"/><line class="cls-22" x1="151.36" y1="28.49" x2="143.28" y2="12.78"/></svg>