<svg id="Laag_1" data-name="Laag 1" xmlns="http://www.w3.org/2000/svg" viewBox="0 0 326.55 212.67"><defs><style>.cls-1{fill:#9f5e7f;}.cls-2{fill:#5ea79b;}.cls-3{fill:#06301a;}.cls-4{fill:#b4c172;}.cls-5{fill:#a9c7b7;}.cls-6{font-size:9.66px;}.cls-16,.cls-6{font-family:MyriadPro-Regular, Myriad Pro;}.cls-7{letter-spacing:0em;}.cls-8{letter-spacing:-0.01em;}.cls-9{letter-spacing:-0.01em;}.cls-10{letter-spacing:-0.01em;}.cls-11{letter-spacing:0em;}.cls-12{letter-spacing:0em;}.cls-13{letter-spacing:0em;}.cls-14{letter-spacing:-0.03em;}.cls-15{letter-spacing:-0.03em;}.cls-16{font-size:16.08px;}.cls-17{fill:none;stroke:#1d1d1b;stroke-miterlimit:10;stroke-width:0.5px;}</style></defs><title>pie2</title><rect class="cls-1" x="222.84" y="143.11" width="25.76" height="20.61"/><path class="cls-1" d="M104.59,166.89V76.73c45.12,0,82,31.5,89,76.06Z" transform="translate(-6 -44.39)"/><rect class="cls-2" x="222.84" y="112.2" width="25.76" height="20.61"/><path class="cls-2" d="M104.59,166.89l89-14.1A90.16,90.16,0,0,1,15.54,181a84.47,84.47,0,0,1-.89-20.4Z" transform="translate(-6 -44.39)"/><rect class="cls-3" x="222.84" y="81.28" width="25.76" height="20.61"/><path class="cls-3" d="M104.59,166.89,14.65,160.6c0-.35.1-1.22.13-1.57Z" transform="translate(-6 -44.39)"/><rect class="cls-4" x="222.84" y="50.37" width="25.76" height="20.61"/><path class="cls-4" d="M104.59,166.89,14.78,159A89.59,89.59,0,0,1,95.17,77.22Z" transform="translate(-6 -44.39)"/><rect class="cls-5" x="222.84" y="19.46" width="25.76" height="20.61"/><path class="cls-5" d="M104.59,166.89,95.17,77.22c3.12-.32,4.71-.42,7.85-.48Z" transform="translate(-6 -44.39)"/><text class="cls-6" transform="translate(250.07 33.38)">U<tspan class="cls-7" x="6.25" y="0">r</tspan><tspan x="9.45" y="0">ban a</tspan><tspan class="cls-8" x="31.67" y="0">r</tspan><tspan x="34.73" y="0">ea</tspan></text><text class="cls-6" transform="translate(250.07 64.3)"><tspan class="cls-9">A</tspan><tspan class="cls-10" x="5.8" y="0">g</tspan><tspan class="cls-11" x="11.14" y="0">r</tspan><tspan class="cls-12" x="14.34" y="0">icultu</tspan><tspan class="cls-8" x="37.05" y="0">r</tspan><tspan x="40.11" y="0">e</tspan></text><text class="cls-6" transform="translate(250.07 95.21)">Sparsely <tspan class="cls-8" x="35.62" y="0">v</tspan><tspan x="40.17" y="0">eget</tspan><tspan class="cls-13" x="58.44" y="0">a</tspan><tspan class="cls-10" x="63.06" y="0">t</tspan><tspan x="66.2" y="0">ed</tspan></text><text class="cls-6" transform="translate(250.07 126.12)"><tspan class="cls-14">W</tspan><tspan x="7.85" y="0">etland</tspan></text><text class="cls-6" transform="translate(250.07 157.04)"><tspan class="cls-15">F</tspan><tspan class="cls-12" x="4.41" y="0">o</tspan><tspan class="cls-8" x="9.71" y="0">r</tspan><tspan x="12.77" y="0">est</tspan></text><text class="cls-16" transform="translate(74.33 163.1)">53.6%</text><text class="cls-16" transform="translate(107.67 87.43)">22.7%</text><text class="cls-16" transform="translate(82 13.46)">1.6%</text><text class="cls-16" transform="translate(0 26.79)">0.2%</text><text class="cls-16" transform="translate(42.33 87.43)">21.9%</text><line class="cls-17" x1="93.37" y1="32.53" x2="92.94" y2="15.28"/><line class="cls-17" x1="8.62" y1="115.39" x2="4" y2="115.51"/><line class="cls-17" x1="9.5" y1="28.35" x2="3.77" y2="115.74"/></svg>